# xmcd CD database file
#
# Track frame offsets:
#	150
#	17555
#	42162
#
# Disc length: 808 seconds
#
# Revision: 2
# Processed by: cddbd v1.5.2PL0 Copyright (c) Steve Scherf et al.
# Submitted via: CDex 1.70beta3
#
DISCID=18032603
DTITLE=UVERworld - Colors of the Heart
DYEAR=2006
DGENRE=J-Rock
TTITLE0=Colors of the Heart
TTITLE1=SORA
TTITLE2=一人じゃないから
EXTD=YEAR: 2006
EXTT0=
EXTT1=
EXTT2=
PLAYORDER=
